<?xml version="1.0" standalone="no"?>
<!DOCTYPE svg PUBLIC "-//W3C//DTD SVG 20010904//EN"
 "http://www.w3.org/TR/2001/REC-SVG-20010904/DTD/svg10.dtd">
<svg version="1.0" xmlns="http://www.w3.org/2000/svg"
 width="516.000000pt" height="516.000000pt" viewBox="0 0 516.000000 516.000000"
 preserveAspectRatio="xMidYMid meet">
<metadata>
Created by potrace 1.11, written by Peter Selinger 2001-2013
</metadata>
<g transform="translate(0.000000,516.000000) scale(0.100000,-0.100000)"
fill="#000000" stroke="none">
<path d="M2460 4462 c-13 -9 -21 -11 -16 -4 4 6 3 12 -3 12 -5 0 -12 -6 -14
-12 -4 -10 -6 -10 -6 0 -1 7 -5 11 -9 8 -5 -3 -27 -6 -50 -7 -23 -2 -42 -7
-42 -11 0 -4 -4 -8 -10 -8 -5 0 -7 8 -4 18 5 15 4 15 -8 1 -7 -9 -23 -14 -36
-12 -14 2 -21 -1 -17 -7 3 -5 2 -10 -3 -10 -16 0 -22 13 -12 25 7 8 6 12 -3
12 -7 0 -14 -9 -14 -20 -3 -29 -13 -34 -29 -13 -13 18 -14 18 -14 2 0 -9 -5
-14 -10 -11 -6 4 -8 10 -6 14 3 4 -1 8 -9 8 -10 0 -12 -4 -5 -12 5 -7 7 -15 3
-19 -4 -4 -13 4 -21 16 -9 16 -12 17 -8 4 5 -14 2 -17 -10 -12 -13 5 -14 4 -6
-7 9 -11 6 -13 -18 -9 -17 2 -30 0 -30 -6 0 -17 -32 -23 -48 -10 -13 11 -14
11 -7 -1 6 -11 4 -13 -9 -8 -13 5 -17 3 -13 -7 4 -11 -1 -13 -19 -10 -16 3
-23 1 -19 -6 4 -6 -1 -7 -11 -3 -11 4 -15 3 -10 -5 4 -7 -2 -9 -19 -6 -15 3
-25 0 -25 -7 0 -7 -3 -10 -6 -6 -3 3 -15 -2 -25 -12 -11 -10 -31 -16 -49 -15
-17 1 -27 -2 -24 -8 3 -5 13 -7 21 -4 8 3 11 1 8 -4 -8 -14 -51 -5 -47 10 1 6
-2 9 -7 5 -6 -3 -8 -12 -5 -20 7 -18 -32 -38 -62 -32 -19 3 -22 1 -14 -8 8
-10 7 -15 -1 -21 -8 -4 -9 -3 -5 4 4 7 3 12 -3 12 -5 0 -13 -5 -16 -10 -4 -6
-12 -7 -18 -3 -7 4 -5 -2 3 -12 10 -12 10 -16 2 -11 -7 4 -19 2 -27 -4 -8 -6
-20 -8 -26 -4 -9 5 -10 2 -6 -9 3 -10 2 -17 -2 -17 -5 0 -12 6 -14 13 -4 8 -6
7 -6 -3 -1 -15 -40 -46 -53 -42 -5 1 -8 -4 -8 -11 0 -8 -7 -14 -15 -15 -8 -1
-22 -3 -30 -4 -12 -1 -12 -4 -2 -16 10 -13 9 -14 -10 -3 -19 10 -22 9 -17 -4
6 -15 -19 -48 -30 -38 -3 3 2 12 12 20 15 13 15 13 -6 3 -13 -6 -20 -16 -16
-22 5 -7 2 -9 -9 -5 -11 4 -14 2 -10 -8 3 -8 10 -12 17 -8 6 3 7 2 3 -3 -9 -9
-13 -10 -43 -13 -13 -1 -14 -4 -4 -16 17 -21 5 -19 -16 3 -17 16 -17 16 -12
-5 7 -25 -8 -42 -33 -38 -9 2 -16 -4 -16 -11 0 -8 5 -14 11 -14 6 0 4 -4 -4
-9 -18 -12 -31 -5 -23 14 3 8 1 15 -5 15 -6 0 -9 -11 -7 -25 2 -18 -2 -25 -13
-23 -9 2 -22 -8 -29 -22 -7 -14 -13 -21 -13 -16 0 5 -7 3 -16 -5 -9 -7 -14
-22 -11 -36 2 -12 0 -20 -5 -17 -4 3 -11 -2 -14 -10 -8 -22 -25 -20 -18 2 5
14 4 14 -4 2 -6 -8 -8 -18 -5 -24 4 -5 -1 -7 -11 -3 -9 4 -15 3 -11 -2 3 -6
-1 -13 -9 -18 -8 -4 -16 -12 -18 -18 -2 -5 -7 -9 -11 -7 -4 1 -2 -8 4 -20 11
-20 11 -22 -3 -10 -13 10 -18 10 -24 1 -4 -8 -3 -9 4 -5 7 4 12 2 12 -3 0 -6
-5 -11 -11 -11 -8 0 -7 -6 2 -17 13 -15 12 -15 -11 -3 -23 12 -24 12 -11 -4
12 -14 12 -16 -4 -10 -12 5 -16 4 -12 -3 4 -6 -3 -14 -16 -17 -22 -6 -22 -6
-2 -22 20 -16 20 -16 -3 -11 -20 5 -21 3 -10 -10 11 -14 10 -15 -12 -9 -19 6
-21 5 -10 -3 12 -8 13 -14 3 -30 -10 -15 -10 -21 0 -24 7 -3 4 -6 -5 -6 -20
-1 -24 14 -8 24 6 4 8 11 4 16 -9 16 -20 2 -22 -31 -2 -22 1 -29 9 -24 8 4 9
3 5 -4 -5 -9 -13 -9 -26 -2 -16 9 -18 7 -15 -12 5 -25 -12 -51 -28 -41 -6 3
-7 1 -3 -5 3 -6 -1 -15 -10 -20 -15 -8 -15 -10 0 -15 11 -5 15 -3 10 5 -4 7
-3 8 5 4 14 -9 4 -28 -13 -24 -6 2 -11 -1 -11 -7 0 -5 5 -9 10 -7 6 1 2 -4 -8
-11 -19 -16 -24 -32 -5 -21 7 4 8 3 4 -5 -5 -8 -12 -9 -20 -2 -8 7 -12 5 -12
-9 0 -10 4 -16 8 -14 5 3 7 0 6 -8 -2 -7 3 -12 10 -10 8 1 11 -2 7 -8 -4 -7
-18 -2 -38 12 -18 12 -27 16 -21 8 13 -19 11 -46 -3 -43 -7 2 -10 -7 -7 -23 3
-18 1 -23 -7 -18 -8 4 -9 3 -5 -5 4 -6 2 -19 -6 -28 -9 -12 -9 -15 0 -9 7 4
12 1 13 -8 2 -25 4 -30 13 -45 7 -11 6 -12 -5 -6 -23 15 -47 13 -44 -4 1 -9
-7 -22 -19 -29 -20 -12 -20 -13 -1 -8 11 3 27 1 35 -5 13 -9 13 -10 -2 -6 -9
3 -21 0 -27 -7 -9 -10 -6 -13 14 -11 14 2 23 -1 19 -6 -3 -5 -10 -7 -15 -4 -8
6 -13 -8 -10 -27 0 -4 -6 -5 -14 -2 -11 5 -13 2 -9 -10 3 -9 11 -13 18 -9 6 3
5 0 -2 -8 -11 -12 -14 -12 -22 1 -7 11 -8 5 -5 -18 3 -28 1 -33 -12 -28 -12 5
-13 3 -5 -7 9 -10 7 -19 -5 -38 l-16 -24 26 24 c15 13 24 31 22 42 -2 12 4 23
18 30 19 9 20 8 6 -3 -8 -7 -15 -25 -14 -40 1 -15 -1 -25 -6 -23 -11 7 -19
-21 -8 -32 6 -6 4 -10 -5 -10 -8 0 -13 4 -10 9 3 4 -3 5 -12 1 -11 -4 -13 -8
-6 -11 7 -2 12 -8 12 -13 0 -6 -4 -8 -8 -5 -5 3 -9 -1 -9 -9 0 -13 3 -13 17 0
14 13 17 13 17 0 0 -8 -4 -12 -9 -9 -13 8 -10 -10 5 -25 10 -11 8 -12 -9 -3
-14 7 -25 7 -35 0 -11 -8 -11 -9 3 -4 10 3 20 1 23 -4 4 -6 -1 -10 -9 -10 -8
0 -18 -5 -22 -11 -4 -8 0 -9 15 -4 12 3 21 2 21 -4 0 -5 -9 -13 -20 -16 -21
-7 -28 -25 -9 -25 6 0 7 -5 2 -12 -11 -19 -13 -39 -2 -32 5 3 9 -1 9 -8 0 -11
2 -10 9 0 6 11 10 10 16 -5 15 -35 13 -41 -9 -37 -17 3 -22 -1 -21 -14 1 -23
14 -42 26 -42 6 0 8 4 4 9 -3 5 -1 12 4 15 17 11 5 -24 -14 -37 -12 -10 -14
-16 -7 -21 16 -10 15 -26 -2 -26 -8 0 -12 -9 -11 -25 2 -14 -1 -25 -6 -25 -9
0 -8 -28 3 -45 3 -5 5 -25 3 -42 -1 -18 1 -30 6 -27 16 10 9 -9 -8 -21 -13 -9
-13 -14 -3 -20 9 -6 11 -4 5 5 -6 10 -4 12 9 7 9 -4 15 -3 12 2 -3 5 2 15 12
22 15 12 15 12 5 -1 -15 -20 -15 -32 3 -52 10 -11 12 -18 5 -23 -21 -13 -11
-26 12 -15 21 10 21 10 3 -4 -10 -8 -15 -20 -11 -28 3 -7 -1 -4 -9 6 -9 11
-14 30 -12 43 3 15 1 21 -6 17 -7 -5 -8 -2 -3 7 7 12 6 12 -6 0 -11 -10 -11
-15 -2 -18 10 -3 10 -10 2 -25 -8 -15 -8 -19 0 -14 15 10 14 -7 -1 -24 -11
-12 -10 -12 5 -1 20 15 23 2 5 -18 -11 -11 -9 -11 10 -1 13 6 26 9 30 6 3 -3
-1 -6 -9 -6 -12 0 -11 -2 1 -11 13 -9 12 -10 -2 -5 -10 3 -20 0 -24 -6 -4 -7
-3 -8 4 -4 7 4 12 2 12 -4 0 -7 7 -10 15 -6 8 3 15 0 15 -5 0 -6 -9 -9 -20 -6
-11 3 -23 0 -27 -5 -3 -7 -1 -8 5 -4 7 4 12 2 12 -4 0 -7 9 -9 23 -5 19 5 20
4 4 -5 -9 -6 -21 -9 -26 -5 -5 3 -13 1 -16 -5 -4 -6 -1 -9 7 -8 7 2 12 -3 10
-9 -3 -18 8 -16 25 5 13 15 13 15 4 -5 -7 -14 -8 -24 -1 -28 10 -6 14 1 10 20
-1 6 5 4 12 -4 10 -11 10 -14 1 -18 -18 -6 -16 -28 2 -43 8 -7 15 -18 15 -24
0 -6 -4 -5 -9 3 -7 11 -11 10 -19 -5 -11 -21 -6 -44 10 -44 6 0 6 6 -2 15 -9
10 -9 15 -1 15 6 0 12 -4 12 -10 1 -5 3 -14 4 -20 1 -5 3 -15 4 -21 0 -5 5 -8
10 -4 5 3 13 0 17 -6 4 -8 3 -9 -4 -5 -14 9 -15 -4 -2 -24 8 -12 10 -12 10 -1
0 8 3 12 6 8 3 -3 -1 -16 -10 -28 -11 -17 -13 -26 -4 -36 8 -9 7 -18 -3 -30
-12 -16 -12 -17 2 -6 9 7 19 10 22 6 10 -9 9 -25 -1 -19 -4 2 -8 -6 -8 -19 0
-17 3 -21 11 -15 7 6 16 6 20 2 5 -4 5 -1 1 6 -4 7 -13 9 -19 6 -7 -4 -8 -3
-4 1 14 16 35 13 32 -4 -4 -23 24 -51 43 -44 14 4 15 3 3 -5 -11 -8 -22 -5
-41 8 -21 15 -27 16 -27 5 0 -8 4 -12 8 -9 4 2 14 -5 23 -17 11 -16 12 -28 5
-43 -9 -19 -9 -19 4 -4 21 26 28 10 10 -21 -11 -19 -11 -22 -1 -9 8 10 18 15
21 11 4 -3 2 -12 -5 -20 -9 -11 -8 -13 2 -11 8 2 14 -1 15 -7 0 -5 4 -16 8
-22 5 -8 4 -13 -2 -13 -6 0 -11 -4 -11 -9 0 -6 9 -8 20 -6 12 2 23 -2 27 -10
3 -8 11 -15 18 -15 8 0 17 -5 21 -11 4 -7 0 -9 -14 -5 -24 8 -39 -11 -23 -27
9 -9 10 -8 5 7 -5 14 -3 17 7 14 8 -3 14 -9 14 -15 0 -5 9 -18 19 -29 19 -18
19 -18 13 -1 -4 10 -7 21 -7 23 0 3 -5 2 -12 -2 -7 -5 -8 -3 -3 5 5 9 10 10
18 2 8 -8 17 -6 31 7 16 13 18 13 8 1 -6 -9 -8 -20 -4 -24 4 -5 2 -5 -4 -2 -7
4 -14 -3 -16 -18 -3 -16 0 -26 11 -30 13 -5 14 -7 1 -16 -12 -9 -12 -10 3 -5
9 3 17 1 17 -4 0 -5 -8 -14 -17 -19 -10 -6 -13 -11 -7 -11 6 0 14 3 18 7 10
10 56 12 50 1 -7 -11 9 -10 24 2 7 5 6 2 -2 -7 -11 -12 -18 -14 -28 -5 -11 9
-14 5 -15 -16 0 -15 1 -19 4 -10 4 14 8 16 24 8 24 -13 24 -29 2 -47 -16 -13
-16 -13 4 -4 14 7 24 8 28 1 3 -5 12 -10 18 -10 7 0 4 7 -5 14 -22 16 -23 23
-4 23 8 0 14 -5 13 -11 -1 -5 3 -10 10 -11 17 0 41 -25 25 -25 -7 0 -12 5 -12
11 0 5 -5 7 -10 4 -15 -9 9 -37 26 -31 8 3 11 0 7 -10 -5 -13 -8 -13 -24 2
-11 10 -19 12 -19 6 0 -7 5 -12 11 -12 8 0 7 -6 -2 -17 -11 -15 -11 -16 0 -6
19 16 81 -32 75 -60 -2 -14 0 -16 10 -8 9 7 16 7 26 -2 12 -10 12 -9 1 5 -7
10 -18 15 -24 11 -5 -3 -7 -1 -3 5 3 5 -5 19 -20 29 -23 17 -23 19 -5 19 11 0
18 -2 15 -5 -9 -9 49 -59 62 -54 8 3 14 0 14 -7 0 -6 -4 -8 -10 -5 -5 3 -10
-1 -10 -9 0 -9 6 -16 13 -16 8 0 7 -4 -3 -11 -12 -8 -10 -9 7 -4 12 3 24 1 28
-5 3 -6 11 -7 17 -4 7 4 8 2 4 -5 -6 -9 -11 -9 -21 -1 -9 8 -14 7 -18 -4 -4
-11 -1 -13 10 -9 11 5 14 3 8 -6 -5 -8 1 -7 16 3 31 20 60 6 40 -18 -16 -19
-1 -22 17 -4 7 7 12 8 12 4 0 -5 8 -2 18 5 15 13 16 12 3 -3 -7 -10 -17 -15
-22 -12 -5 3 -9 -2 -9 -10 0 -9 4 -16 9 -16 5 0 11 -10 15 -23 5 -18 8 -20 16
-7 5 8 10 11 10 5 0 -5 7 -1 15 9 17 22 20 14 5 -13 -7 -14 -4 -23 12 -37 12
-11 18 -13 14 -6 -4 7 -1 12 8 12 8 0 17 6 19 13 4 9 6 9 6 0 1 -6 -4 -15 -9
-18 -6 -3 -10 -14 -9 -23 0 -15 1 -15 7 1 7 16 9 16 27 2 20 -15 20 -15 0 -9
-16 5 -17 4 -5 -4 8 -6 18 -8 23 -5 4 3 11 -5 14 -17 3 -11 11 -19 18 -16 7 2
18 -1 25 -7 10 -9 11 -9 6 1 -4 6 -2 12 3 12 6 0 11 -5 11 -12 0 -6 10 -3 22
8 13 11 18 13 12 4 -5 -8 -9 -25 -9 -37 -1 -17 3 -20 15 -13 9 5 23 4 34 -2
15 -8 17 -8 11 3 -11 19 6 1 34 -35 l22 -30 -5 35 c-3 18 -3 28 0 21 3 -6 10
-10 15 -7 5 4 6 0 3 -8 -3 -8 0 -18 5 -22 6 -3 9 -10 6 -15 -3 -5 0 -12 6 -16
7 -4 9 -3 5 4 -3 6 -2 13 3 16 5 4 13 1 16 -5 4 -5 13 -8 20 -5 7 2 16 2 20
-2 4 -4 22 -8 41 -8 31 -1 34 1 29 20 -5 17 -4 18 4 6 6 -8 9 -28 6 -45 -4
-26 -4 -27 5 -8 10 25 26 32 17 8 -4 -8 -1 -17 5 -21 7 -4 8 -3 4 4 -4 7 -1
12 8 12 8 0 22 3 31 6 12 5 15 1 11 -18 -3 -16 1 -25 10 -25 7 0 11 4 9 8 -3
4 2 9 10 13 8 3 17 0 21 -6 4 -7 3 -8 -4 -4 -7 4 -12 2 -12 -3 0 -15 13 -14
29 2 11 9 13 9 7 0 -4 -8 -1 -13 8 -13 9 0 16 -6 16 -12 0 -10 3 -9 9 1 7 11
9 11 14 0 4 -10 6 -10 6 -1 1 14 37 16 46 2 4 -6 -1 -7 -12 -3 -10 3 -14 2
-10 -2 11 -13 115 -12 112 0 -1 6 0 7 2 2 3 -4 9 -5 14 -2 5 4 6 -1 3 -10 -5
-12 -2 -14 17 -6 13 5 23 14 22 20 -2 6 4 8 14 4 11 -4 13 -8 5 -11 -7 -2 -12
-10 -12 -18 0 -9 -5 -12 -12 -8 -7 5 -8 3 -3 -6 6 -10 10 -10 20 3 8 11 15 13
22 6 8 -8 13 -8 17 0 4 5 14 7 24 4 14 -5 15 -3 5 8 -7 7 -13 18 -13 24 0 5 5
3 10 -5 5 -8 17 -15 27 -15 11 0 17 -6 15 -15 -3 -12 -1 -12 9 -3 9 9 17 9 32
2 15 -9 18 -8 12 2 -6 9 -3 11 9 6 10 -4 20 -7 23 -7 3 0 -1 -8 -8 -17 -11
-15 -10 -14 9 1 15 13 22 15 22 6 0 -7 3 -11 6 -8 3 4 0 17 -7 30 -10 19 -10
21 2 12 20 -14 45 -11 41 6 -3 12 0 11 15 -1 10 -9 25 -14 33 -11 13 4 13 3 2
-10 -10 -13 -10 -18 -1 -24 8 -4 9 -3 5 4 -4 7 -1 12 8 12 9 0 16 -6 16 -12 0
-7 5 -5 11 5 13 22 29 22 29 0 0 -9 3 -14 6 -10 3 3 3 15 -1 27 -6 20 -8 20
-25 5 -15 -14 -18 -14 -23 -1 -4 10 -1 13 7 10 8 -3 17 0 21 6 5 8 11 8 21 -1
11 -9 14 -8 14 2 0 8 6 5 15 -7 8 -10 15 -15 15 -10 0 5 8 2 17 -5 11 -10 14
-10 9 -1 -4 7 -2 12 4 12 7 0 10 7 7 15 -4 8 -2 17 4 20 5 4 9 3 8 -2 -3 -19
2 -33 12 -33 5 0 7 5 4 10 -3 6 -3 10 2 11 4 0 18 2 30 3 12 1 20 -1 17 -5 -2
-4 1 -11 7 -15 7 -4 9 -3 6 3 -4 6 2 20 12 32 13 15 20 18 23 9 4 -10 8 -10
21 1 18 15 24 2 7 -15 -7 -7 -6 -11 4 -11 8 0 15 3 14 6 -4 38 22 61 41 37 8
-9 7 -13 -4 -13 -8 0 -11 5 -8 10 3 6 1 7 -5 3 -9 -5 -9 -13 -2 -27 12 -22 22
-26 14 -4 -4 10 0 13 16 10 18 -3 20 -2 10 10 -7 9 -8 15 0 20 5 3 10 1 10 -4
0 -6 4 -11 10 -11 5 0 7 6 4 14 -3 8 0 17 7 22 7 4 10 3 6 -2 -3 -6 -2 -16 4
-24 7 -13 9 -12 9 1 0 9 7 19 15 23 8 3 15 1 15 -4 0 -6 -4 -10 -10 -10 -5 0
-10 -4 -10 -10 0 -17 18 -11 24 8 4 10 22 24 41 31 20 7 33 16 30 21 -3 4 3 7
12 5 10 -2 22 -4 26 -4 5 -1 5 -7 1 -13 -6 -10 -5 -10 7 -1 12 10 18 10 29 0
12 -10 12 -9 1 5 -7 10 -17 16 -21 13 -5 -3 -12 0 -16 7 -4 7 -3 10 1 5 5 -4
17 1 28 10 11 10 17 13 14 6 -10 -17 13 -28 26 -13 9 10 9 11 -3 5 -13 -8 -13
-6 -1 8 9 12 18 14 31 7 12 -7 21 -6 29 4 8 9 7 13 -4 13 -8 0 -11 -5 -8 -10
3 -6 1 -7 -6 -3 -6 4 -9 11 -6 16 6 9 31 8 41 -3 11 -10 24 -8 24 4 0 5 -5 7
-10 4 -5 -3 -10 -2 -10 3 0 19 26 29 62 26 21 -2 40 0 42 5 3 4 -8 7 -24 6
-16 -1 -27 2 -24 7 4 5 12 7 20 4 8 -3 14 -1 14 5 0 6 7 8 16 5 11 -4 15 -2
11 8 -4 10 -1 13 9 9 17 -6 18 -15 2 -32 -10 -11 -10 -12 -1 -7 7 4 18 16 24
28 8 16 8 19 -1 13 -8 -5 -11 -3 -8 6 3 8 11 13 17 12 6 -2 11 1 11 6 0 5 8
12 18 16 14 5 15 4 5 -6 -7 -7 -13 -18 -13 -24 0 -5 5 -2 11 8 6 9 14 15 20
12 5 -3 6 1 3 9 -6 15 26 38 48 34 6 -2 12 3 13 11 0 8 6 16 14 19 9 3 11 0 6
-8 -5 -9 -4 -11 4 -6 6 4 9 11 6 16 -8 12 47 61 62 55 7 -2 12 -1 12 3 -3 19
2 23 15 13 11 -9 16 -9 22 0 4 8 3 9 -4 5 -7 -4 -12 -1 -12 9 0 11 5 15 14 12
10 -4 13 -1 10 7 -7 18 12 30 22 15 5 -8 3 -9 -6 -4 -9 5 -11 4 -6 -4 9 -15
27 -4 20 12 -5 13 74 94 88 89 4 -1 8 3 8 9 0 6 10 24 21 41 16 21 27 28 42
24 15 -4 17 -2 8 7 -8 8 -3 18 21 40 18 16 26 26 18 21 -8 -5 -4 6 10 23 14
17 28 29 32 27 4 -3 9 0 13 6 3 5 1 10 -5 10 -7 0 -6 5 2 14 7 8 17 12 21 9 5
-3 7 3 5 13 -2 12 2 18 10 16 8 -1 11 2 8 7 -4 5 0 16 8 24 8 8 12 17 9 21 -4
3 -1 6 5 6 7 0 12 7 12 16 0 9 5 12 12 8 7 -5 8 -3 3 6 -5 8 -2 17 7 24 8 6
15 16 16 21 1 6 9 27 18 48 14 30 21 36 38 31 21 -6 21 -6 1 9 -18 14 -18 16
-3 22 10 4 14 13 11 22 -4 11 -2 14 5 9 8 -5 10 -2 6 8 -4 10 -1 16 9 16 21 0
31 17 16 26 -8 4 -9 3 -5 -4 4 -7 2 -12 -3 -12 -6 0 -11 2 -11 5 0 12 38 74
42 69 3 -2 4 7 2 21 -1 18 2 25 10 22 7 -3 13 1 13 9 0 7 -4 11 -8 9 -14 -9 4
40 19 53 13 10 13 12 1 12 -8 0 -10 3 -4 8 6 4 12 18 14 32 1 14 8 28 15 32 6
4 7 8 1 8 -5 0 -3 5 5 10 8 5 10 10 4 10 -9 0 -9 11 -3 38 8 34 24 126 34 197
3 17 5 94 6 172 1 104 4 141 13 136 6 -3 6 -1 -1 8 -7 7 -13 25 -13 39 0 14 6
32 13 39 10 10 9 12 -3 9 -12 -2 -15 7 -14 39 1 24 -3 40 -7 37 -5 -3 -9 4 -9
16 0 14 4 19 13 14 8 -5 7 -2 -2 9 -8 10 -15 28 -16 40 -1 12 -5 29 -8 37 -3
8 -8 29 -10 45 -2 17 -7 37 -10 45 -4 8 -8 24 -10 35 -2 11 -7 28 -11 37 -4 9
-8 22 -10 30 -1 7 -4 18 -7 23 -4 6 -12 28 -19 50 -6 22 -21 59 -32 82 -10 23
-20 51 -21 62 -1 11 -7 23 -14 25 -7 3 -10 12 -6 22 4 12 3 15 -5 10 -8 -5
-12 0 -12 13 0 10 -4 21 -8 23 -5 2 -26 33 -46 70 -21 37 -42 70 -47 74 -5 3
-7 10 -4 15 4 5 2 9 -4 9 -6 0 -15 10 -22 21 -9 17 -8 24 2 31 11 6 9 8 -6 6
-12 -2 -19 2 -17 10 1 8 -2 11 -7 8 -16 -10 -25 15 -10 26 11 8 10 9 -3 5 -20
-7 -43 17 -32 34 4 7 3 9 -3 6 -13 -8 -46 27 -36 37 5 4 3 6 -2 4 -6 -2 -12 1
-15 6 -3 6 -20 25 -39 43 -30 29 -32 35 -20 50 11 15 11 16 -1 6 -19 -18 -33
-16 -26 3 3 9 2 12 -5 9 -6 -4 -19 1 -30 11 -13 12 -16 20 -8 24 7 5 5 9 -6
13 -10 5 -14 3 -9 -4 4 -7 1 -10 -7 -7 -8 3 -13 11 -12 17 2 6 -1 10 -6 8 -5
-1 -17 6 -28 15 -54 50 -64 58 -73 58 -5 0 -15 9 -22 20 -7 11 -18 20 -25 20
-7 0 -13 4 -13 10 0 5 -4 9 -8 7 -11 -3 -55 29 -95 68 -18 18 -23 20 -11 6
l19 -24 -22 12 c-13 6 -23 16 -23 21 0 6 -3 9 -7 9 -21 -3 -33 2 -27 13 4 6 3
8 -3 5 -15 -9 -75 22 -67 35 4 7 2 8 -5 4 -16 -10 -53 3 -45 16 4 6 2 8 -4 5
-13 -9 -44 2 -37 13 3 5 -4 6 -15 3 -12 -3 -20 0 -20 6 0 7 -4 10 -8 7 -5 -3
-19 1 -33 8 -13 6 -54 21 -91 31 -38 11 -68 25 -68 32 0 7 -5 13 -11 13 -5 0
-7 -5 -3 -12 5 -8 2 -9 -10 -5 -10 4 -24 7 -32 7 -8 0 -13 3 -13 8 3 18 -2 26
-9 14 -11 -16 -75 -5 -65 12 3 6 0 6 -7 -1 -11 -10 -18 -9 -34 5 -11 9 -16 11
-12 5 4 -8 1 -13 -9 -13 -9 0 -14 4 -11 8 2 4 -8 8 -22 7 -17 0 -26 5 -24 13
1 8 -2 11 -8 7 -6 -3 -8 -11 -5 -16 4 -5 -1 -9 -10 -9 -9 0 -14 4 -11 8 3 5
-5 8 -17 7 -12 -1 -28 3 -36 9 -11 8 -13 8 -8 0 4 -7 -2 -11 -18 -11 -14 0
-22 3 -20 7 3 5 -9 6 -26 3 -24 -3 -29 -2 -23 9 6 10 5 11 -7 1 -17 -14 -121
-13 -131 2 -5 6 -8 6 -8 -2 0 -7 -5 -13 -11 -13 -5 0 -7 5 -4 10 8 13 5 12
-25 -8z m-1254 -574 c5 -7 3 -8 -6 -3 -10 6 -12 4 -6 -11 5 -14 4 -16 -5 -7
-6 6 -8 16 -5 22 9 14 13 14 22 -1z m-33 -41 c7 3 8 2 4 -2 -10 -11 -37 -15
-37 -6 0 14 14 23 18 12 2 -6 9 -8 15 -4z m-102 -109 c-11 -11 -18 -26 -14
-31 3 -6 1 -7 -5 -3 -13 8 13 56 30 56 5 0 0 -10 -11 -22z m-188 -303 c-3 -9
-8 -14 -10 -11 -3 3 -2 9 2 15 9 16 15 13 8 -4z m-23 -15 c0 -5 -5 -10 -11
-10 -5 0 -7 5 -4 10 3 6 8 10 11 10 2 0 4 -4 4 -10z m-19 -73 c-10 -9 -11 -8
-5 6 3 10 9 15 12 12 3 -3 0 -11 -7 -18z m-50 -84 c12 -14 12 -16 0 -8 -11 6
-13 3 -8 -14 3 -14 0 -24 -8 -27 -7 -3 -12 -16 -10 -29 1 -14 -2 -22 -6 -19
-13 8 -5 44 12 55 13 8 5 14 -16 9 -5 -1 -2 7 8 18 9 10 14 22 10 25 -3 4 -4
7 -1 7 3 0 12 -8 19 -17z m-131 -543 c12 -7 10 -9 -8 -7 -12 0 -22 5 -22 9 0
11 12 10 30 -2z m-10 -30 c0 -5 -7 -10 -16 -10 -8 0 -12 5 -9 10 3 6 10 10 16
10 5 0 9 -4 9 -10z m24 -209 c-3 -3 -11 -6 -17 -6 -7 0 -11 -8 -9 -18 2 -9 -2
-17 -8 -17 -6 0 -9 -4 -5 -10 3 -5 13 -7 23 -4 15 5 15 4 1 -5 -18 -11 -18
-57 0 -53 6 1 11 -2 11 -8 0 -10 -12 -13 -27 -7 -5 1 -8 11 -9 22 -1 11 -2 23
-4 28 -6 18 -6 33 3 45 5 6 6 12 2 12 -4 0 -2 6 4 13 6 8 18 14 26 14 8 0 12
-3 9 -6z m11 -181 c3 -5 1 -10 -4 -10 -6 0 -11 5 -11 10 0 6 2 10 4 10 3 0 8
-4 11 -10z m75 -285 c19 -22 8 -25 -12 -3 -10 10 -14 18 -9 18 5 0 14 -7 21
-15z m27 -80 c0 -8 -4 -12 -9 -9 -5 3 -6 10 -3 15 9 13 12 11 12 -6z m-7 -95
c-12 -8 -12 -10 -1 -10 8 0 12 -3 8 -6 -9 -9 -28 6 -22 17 4 5 12 9 18 9 7 0
6 -4 -3 -10z m65 -100 c3 -5 1 -10 -4 -10 -6 0 -11 5 -11 10 0 6 2 10 4 10 3
0 8 -4 11 -10z m21 -59 c-3 -5 1 -14 10 -21 8 -7 13 -19 10 -26 -3 -7 -1 -16
5 -19 5 -4 7 -11 4 -16 -4 -5 -1 -9 5 -9 7 0 9 -7 6 -15 -3 -9 1 -18 8 -21 8
-3 17 -13 21 -22 5 -14 4 -14 -13 1 -10 9 -22 15 -25 12 -4 -3 -5 -2 -2 2 3 3
0 12 -6 20 -6 7 -8 13 -4 13 4 0 2 7 -5 15 -7 8 -9 15 -5 15 4 0 1 8 -6 17
-10 11 -10 14 -1 9 21 -12 13 12 -9 27 -15 11 -17 16 -7 20 19 8 20 8 14 -2z
m58 -67 c3 -8 2 -12 -4 -9 -6 3 -10 10 -10 16 0 14 7 11 14 -7z m9 -39 c-3 -9
-8 -14 -10 -11 -3 3 -2 9 2 15 9 16 15 13 8 -4z m89 -152 c-9 -3 -7 -10 9 -24
12 -10 18 -19 12 -19 -5 0 -17 8 -26 18 -17 19 -13 33 7 31 6 0 5 -3 -2 -6z
m188 -197 c0 -2 -9 -6 -20 -9 -11 -3 -18 -1 -14 4 5 9 34 13 34 5z m35 -26 c3
-5 1 -10 -4 -10 -6 0 -11 5 -11 10 0 6 2 10 4 10 3 0 8 -4 11 -10z m79 -82
c-3 -4 0 -8 7 -8 7 0 10 -2 7 -5 -7 -7 -38 5 -38 14 0 4 7 8 15 8 8 0 12 -4 9
-9z m50 -16 c3 -5 -1 -9 -9 -9 -8 0 -12 4 -9 9 3 4 7 8 9 8 2 0 6 -4 9 -8z
m76 -101 c0 -14 -2 -14 -10 -1 -9 13 -10 13 -10 0 0 -13 -2 -13 -9 0 -6 8 -8
17 -5 22 8 12 34 -3 34 -21z m45 -31 c-17 -19 -41 -18 -29 1 3 5 10 7 15 4 5
-4 9 -1 9 4 0 6 5 11 12 11 6 0 3 -8 -7 -20z m42 -22 c-3 -8 -6 -5 -6 6 -1 11
2 17 5 13 3 -3 4 -12 1 -19z m31 -10 c-2 -7 3 -12 10 -10 6 1 11 -1 11 -5 -4
-22 3 -25 17 -7 15 18 15 18 5 -2 -6 -12 -8 -23 -6 -26 3 -3 -2 -5 -10 -5 -8
0 -13 2 -11 5 3 2 -4 13 -15 25 -21 23 -24 37 -9 37 6 0 9 -6 8 -12z m79 -44
c-3 -3 -12 -4 -19 -1 -8 3 -5 6 6 6 11 1 17 -2 13 -5z m46 -38 c5 -12 -2 -14
-31 -7 -2 1 0 6 3 11 9 14 22 12 28 -4z m37 8 c0 -8 -19 -13 -24 -6 -3 5 1 9
9 9 8 0 15 -2 15 -3z m25 -40 c0 -25 -10 -23 -17 4 -3 10 0 19 6 19 6 0 11
-10 11 -23z m88 -11 c4 -3 1 -13 -6 -21 -10 -13 -8 -14 11 -8 14 5 22 3 22 -4
0 -6 4 -9 8 -6 4 2 14 0 22 -5 12 -7 10 -8 -7 -6 -12 2 -25 6 -29 9 -3 4 -12
4 -19 2 -17 -7 -29 12 -14 22 8 4 7 9 -2 15 -8 5 -9 9 -3 9 6 0 14 -3 17 -7z
m-33 -19 c0 -8 -5 -12 -10 -9 -6 4 -8 11 -5 16 9 14 15 11 15 -7z m91 -1 c13
-16 12 -17 -3 -4 -17 13 -22 21 -14 21 2 0 10 -8 17 -17z m237 -86 c6 3 12 0
12 -5 0 -17 -32 -7 -42 14 -8 17 -8 17 4 3 7 -9 19 -14 26 -12z m102 -31 c0
-11 -30 1 -39 16 -11 18 -11 18 14 2 14 -9 25 -17 25 -18z m560 5 c0 -4 -6 -8
-13 -8 -8 0 -14 6 -14 13 0 7 6 10 14 7 7 -3 13 -8 13 -12z m-407 -16 c-7 -21
-12 -19 -10 4 0 11 5 18 9 15 4 -3 5 -11 1 -19z m117 15 c0 -5 -5 -10 -11 -10
-5 0 -7 5 -4 10 3 6 8 10 11 10 2 0 4 -4 4 -10z m41 -17 c13 -16 12 -17 -3 -4
-17 13 -22 21 -14 21 2 0 10 -8 17 -17z"/>
<path d="M2020 4399 c0 -5 5 -7 10 -4 6 3 10 8 10 11 0 2 -4 4 -10 4 -5 0 -10
-5 -10 -11z"/>
<path d="M1836 4362 c-3 -5 1 -9 9 -9 8 0 12 4 9 9 -3 4 -7 8 -9 8 -2 0 -6 -4
-9 -8z"/>
<path d="M1825 4330 c-3 -5 -12 -7 -20 -3 -8 3 -15 3 -15 0 0 -13 30 -14 40
-1 7 8 10 14 7 14 -3 0 -8 -4 -12 -10z"/>
<path d="M1702 4274 c-14 -16 -5 -18 17 -5 7 5 9 11 5 14 -5 3 -15 -1 -22 -9z"/>
<path d="M1575 4221 c-3 -5 -2 -12 3 -15 5 -3 9 1 9 9 0 17 -3 19 -12 6z"/>
<path d="M1520 4181 c0 -7 -5 -9 -10 -6 -6 4 -9 1 -8 -7 2 -8 -5 -12 -17 -10
-16 2 -17 1 -5 -7 11 -8 20 -5 34 9 11 11 17 23 13 26 -4 4 -7 2 -7 -5z"/>
<path d="M1250 3975 c0 -7 30 -13 34 -7 3 4 -4 9 -15 9 -10 1 -19 0 -19 -2z"/>
<path d="M1104 3839 c-3 -6 -2 -15 3 -20 5 -5 9 -1 9 11 0 23 -2 24 -12 9z"/>
<path d="M716 3151 c-4 -5 -2 -12 3 -15 5 -4 12 -2 15 3 4 5 2 12 -3 15 -5 4
-12 2 -15 -3z"/>
<path d="M610 2638 c0 -4 7 -8 15 -8 8 0 17 0 20 0 3 0 4 3 3 7 -4 10 -38 11
-38 1z"/>
<path d="M595 2601 c-3 -5 -2 -12 3 -15 5 -3 9 1 9 9 0 17 -3 19 -12 6z"/>
<path d="M610 2555 c0 -9 5 -15 11 -13 6 2 11 8 11 13 0 5 -5 11 -11 13 -6 2
-11 -4 -11 -13z"/>
<path d="M610 2520 c0 -6 7 -10 15 -10 8 0 15 2 15 4 0 2 -7 6 -15 10 -8 3
-15 1 -15 -4z"/>
<path d="M679 2051 c8 -5 10 -14 6 -22 -6 -11 -5 -11 5 -2 14 12 6 33 -13 33
-8 0 -7 -3 2 -9z"/>
<path d="M685 2010 c-18 -8 -18 -9 -2 -9 12 -1 16 -5 11 -13 -5 -9 -3 -9 9 1
9 7 14 17 11 22 -3 5 -6 9 -7 8 -1 0 -11 -4 -22 -9z"/>
<path d="M718 1919 c18 -20 15 -33 -5 -18 -16 13 -17 12 -4 -3 7 -10 18 -15
23 -12 6 4 8 -2 3 -15 -6 -20 4 -28 18 -15 8 8 -19 60 -35 70 -10 6 -11 4 0
-7z"/>
<path d="M4356 1827 c3 -10 9 -15 12 -12 3 3 0 11 -7 18 -10 9 -11 8 -5 -6z"/>
<path d="M730 1820 c0 -5 5 -10 11 -10 5 0 7 5 4 10 -3 6 -8 10 -11 10 -2 0
-4 -4 -4 -10z"/>
<path d="M1106 1244 c-5 -14 -4 -15 9 -4 17 14 19 20 6 20 -5 0 -12 -7 -15
-16z"/>
<path d="M3916 1238 c3 -5 10 -6 15 -3 13 9 11 12 -6 12 -8 0 -12 -4 -9 -9z"/>
<path d="M3871 1194 c0 -11 3 -14 6 -6 3 7 2 16 -1 19 -3 4 -6 -2 -5 -13z"/>
<path d="M1237 1119 c7 -7 15 -10 18 -7 3 3 -2 9 -12 12 -14 6 -15 5 -6 -5z"/>
<path d="M3735 1089 c-4 -6 -5 -12 -2 -15 2 -3 7 2 10 11 7 17 1 20 -8 4z"/>
<path d="M1341 1056 c-9 -11 -9 -16 0 -22 7 -4 9 -3 5 4 -3 6 2 12 11 14 12 2
14 6 7 11 -7 4 -17 0 -23 -7z"/>
<path d="M3415 880 c3 -5 11 -10 16 -10 6 0 7 5 4 10 -3 6 -11 10 -16 10 -6 0
-7 -4 -4 -10z"/>
<path d="M3326 827 c3 -10 9 -15 12 -12 3 3 0 11 -7 18 -10 9 -11 8 -5 -6z"/>
<path d="M3206 784 c-11 -8 -16 -14 -10 -14 13 0 39 18 34 24 -3 2 -14 -2 -24
-10z"/>
<path d="M1850 740 c0 -5 5 -10 11 -10 5 0 7 5 4 10 -3 6 -8 10 -11 10 -2 0
-4 -4 -4 -10z"/>
<path d="M2003 723 c-15 -5 -17 -23 -4 -23 5 0 11 7 15 15 3 8 4 15 3 14 -1 0
-8 -3 -14 -6z"/>
<path d="M2924 699 c-3 -6 -1 -16 5 -22 9 -9 10 -7 5 7 -6 15 -4 17 6 11 9 -5
11 -4 6 3 -9 15 -13 15 -22 1z"/>
<path d="M2860 680 c0 -5 5 -10 11 -10 5 0 7 5 4 10 -3 6 -8 10 -11 10 -2 0
-4 -4 -4 -10z"/>
<path d="M2615 660 c-4 -6 -10 -8 -14 -6 -4 3 -8 -1 -8 -9 0 -9 4 -11 11 -6 6
4 18 10 26 13 10 3 11 6 3 11 -7 4 -14 3 -18 -3z"/>
<path d="M2750 661 c0 -6 4 -13 10 -16 6 -3 7 1 4 9 -7 18 -14 21 -14 7z"/>
<path d="M2437 641 c-4 -17 -3 -21 5 -13 5 5 8 16 6 23 -3 8 -7 3 -11 -10z"/>
</g>
</svg>
